<?xml version="1.0" encoding="utf-8"?>
<!-- Generator: Adobe Illustrator 19.2.1, SVG Export Plug-In . SVG Version: 6.00 Build 0)  -->
<svg version="1.1" id="layer" xmlns="http://www.w3.org/2000/svg" xmlns:xlink="http://www.w3.org/1999/xlink" x="0px"
     y="0px"
     viewBox="-50 0 752 652" style="enable-background:new 0 0 652 652;" xml:space="preserve">
<style type="text/css">
	.st0{fill:#FFCC00;}
	.st1{fill:#CC0000;}
</style>
    <g>
	<path fill="white" d="M-9.4,423.9v-30.7H2.1v30.4c0,8.7,4.3,13.3,11.3,13.3s11.3-4.4,11.3-12.9v-30.8h11.5v30.4c0,16.3-8.9,24.3-22.9,24.3
		C-0.8,447.8-9.4,439.7-9.4,423.9z"/>
        <path fill="white"
              d="M52.3,393.1h10.6l24.5,33.1v-33.1h11.3v53.8h-9.8l-25.2-34.2v34.2H52.3L52.3,393.1L52.3,393.1z"/>
        <path fill="white" d="M116.2,393.1h11.5v53.8h-11.5V393.1z"/>
        <path fill="white" d="M140.8,393.1h12.7l13.7,37.9l13.7-37.9h12.4L172,447.3h-10.2L140.8,393.1z"/>
        <path fill="white"
              d="M205.6,393.1H245v10.6h-28v10.9h24.6v10.6H217v11.3h28.4v10.6h-39.7C205.6,447.1,205.6,393.1,205.6,393.1z"/>
        <path fill="white" d="M263,393.1h23.9c6.6,0,11.8,1.9,15.2,5.4c2.9,3,4.5,7.3,4.5,12.3v0.1c0,8.7-4.5,14.2-11.2,16.7l12.8,19.2h-13.4l-11.2-17.2
		h-0.1h-8.9v17.2H263V393.1z M286.1,419.3c5.6,0,8.8-3,8.8-7.6v-0.1c0-5-3.4-7.7-9-7.7h-11.4v15.5L286.1,419.3L286.1,419.3z"/>
        <path fill="white" d="M320.8,439.1l6.8-8.4c4.7,4,9.6,6.5,15.6,6.5c4.7,0,7.5-1.9,7.5-5v-0.1c0-3-1.8-4.5-10.5-6.9c-10.5-2.8-17.3-5.8-17.3-16.4
		v-0.1c0-9.8,7.6-16.2,18.3-16.2c7.6,0,14.1,2.5,19.4,6.9l-6,8.9c-4.6-3.3-9.2-5.3-13.6-5.3c-4.4,0-6.7,2.1-6.7,4.7v0.1
		c0,3.6,2.3,4.7,11.3,7.1c10.6,2.8,16.6,6.7,16.6,16.1v0.1c0,10.7-7.9,16.7-19.2,16.7C335.1,447.7,327.1,444.9,320.8,439.1z"/>
        <path fill="white" d="M378.6,393.1H390v53.8h-11.5V393.1z"/>
        <path fill="white" d="M419.8,404.1h-15.9v-10.9h43.2v10.9h-15.9v42.9h-11.5L419.8,404.1L419.8,404.1z"/>
        <path fill="white" d="M476.6,425.7l-20.1-32.6h13.4l12.4,21.6l12.7-21.6h13.1L488,425.5v21.4h-11.5V425.7z"/>
        <path fill="white" d="M544.8,420.2V420c0-15.3,11.7-27.8,27.8-27.8c16.1,0,27.6,12.4,27.6,27.7v0.1c0,15.3-11.7,27.8-27.8,27.8
		C556.3,447.8,544.8,435.5,544.8,420.2z M588.3,420.2V420c0-9.2-6.5-16.9-15.8-16.9c-9.3,0-15.7,7.5-15.7,16.8v0.1
		c0,9.3,6.5,16.9,15.8,16.9C581.8,437,588.3,429.4,588.3,420.2z"/>
        <path fill="white" d="M613,393.1h39.7v10.7h-28.3v11.5h24.9v10.7h-24.9v20.8H613V393.1z"/>
        <path fill="white" d="M34.3,468.4c-28.5,0-50,22.3-50,51.9v0.3c0,14,5,27.1,14,36.6c9.1,9.6,21.7,15,35.3,15c16.1,0,27.4-5,39.1-17.5l-10.5-10.9
		c-8.4,8-16.1,13-28.1,13c-18.4,0-32.8-16-32.8-36.4v-0.3c0-20.6,14-36.2,32.8-36.2c9.9,0,18.3,3.8,27.4,12.4L72,483.8
		C64.2,476.2,53.6,468.4,34.3,468.4z"/>
        <path fill="white"
              d="M162,570.6h18l-42.7-101h-16.9l-42.7,101h17.4l10.1-24.5H152L162,570.6z M146.1,531.2h-35l17.4-42.1L146.1,531.2z"/>
        <path fill="white"
              d="M448.1,570.6h18l-42.7-101h-16.9l-42.7,101h17.4l10.1-24.5h46.9L448.1,570.6z M432.2,531.2h-35l17.4-42.1L432.2,531.2z"/>
        <path fill="white" d="M190.6,570.6h69.1v-15.3h-51.5v-85.1h-17.6V570.6z"/>
        <path fill="white" d="M312.5,468.4c-28.1,0-51.1,22.8-51.1,51.9v0.3c0,30.4,21.8,51.6,51.3,51.6c18.8,0,32.3-8.4,42-15.5v-41.9h-40.2v14.6h22.9
		v19.6l-0.2,0.1c-6.4,4.9-15.1,7.8-23.9,7.8c-19.9,0-33.7-15.1-33.7-36.6v-0.3c0-19.9,14.4-36.2,32.2-36.2c12.5,0,20,4.3,27.4,10.7
		l10.4-12.8C338.5,472.3,327.8,468.4,312.5,468.4z"/>
        <path fill="white" d="M541.2,570.6h19.2l-26.3-38.1l0.6-0.2c14.9-4.4,24.8-15.1,24.8-30.2v-0.3c0-8.5-4.5-16-9.7-21.6c-6.5-6.5-16.1-10-28-10
		h-44.3v100.3H495v-35.3h22.2L541.2,570.6z M520.5,520.4h-25.6v-34.9h25.5c13.1,0,20.7,6.3,20.7,17.2v0.3
		C541.1,513.5,533,520.4,520.5,520.4z"/>
        <path fill="white" d="M598.4,570.6h18.8V532l38.5-61.8h-19.4l-28,45.2l-27.6-45.2H561l37.4,61.8V570.6z"/>
        <path d="M321.6,72.2c-79.6,0-112.5,26.7-112.5,26.7v119.7c0,66.3,87.6,135,112.5,141.9c24.9-6.9,112.5-75.6,112.5-141.9V98.9
		C434.1,98.9,401.2,72.2,321.6,72.2z"/>
        <path class="st0" d="M321.7,262"/>
        <path class="st0" d="M397.8,206.8l-23.4,38.7C383.2,241.5,396.5,231.4,397.8,206.8z"/>
        <path class="st0" d="M269,245.5l-23.4-38.7C246.9,231.4,260.1,241.5,269,245.5z"/>
        <path class="st0" d="M307.8,220.4c0.5,0.6,0.8,1.4,0.8,2.3c0,2.1-1.8,3.9-3.9,3.9c-2.2,0-4-1.7-4-3.9c0-1.2,0.5-2.1,1.4-2.8
		c-3.1-0.6-6.4-2.2-6.4-2.2c0.7,2.3,2.4,10.9,8.1,11.6c7.1,0.8,8.9-5.8,8.9-5.8S311.5,221.4,307.8,220.4z"/>
        <path class="st0" d="M341.5,219.8c0.8,0.7,1.4,1.7,1.4,2.8c0,2.1-1.8,3.9-4,3.9c-2.2,0-3.9-1.7-3.9-3.9c0-0.9,0.4-1.7,0.8-2.3
		c-3.6,1-4.7,3.2-4.7,3.2s1.8,6.5,8.9,5.8c5.7-0.6,7.4-9.3,8.1-11.6C347.9,217.7,344.7,219.3,341.5,219.8z"/>
        <path class="st0" d="M348.2,199.7c-2.3-1.9-5.3,0.5-3,3c1.9,2.1,3.2,3.6,2.3,5.1c-1.1,2.1-11.8,1.6-25.6,6.8
		c-13.8-5.2-24.5-4.7-25.6-6.8c-0.8-1.6,0.5-3,2.3-5.1c2.3-2.6-0.7-5-3-3c-1.9,1.6-5.5,6.5-4.2,9.8c2,5.2,14.2,3.6,30.6,10.4l0,0
		c0,0,0,0,0.1,0c0,0,0,0,0.1,0l0,0c16.2-6.7,28.5-5.1,30.6-10.4C353.7,206.2,350.1,201.3,348.2,199.7z"/>
        <path class="st0" d="M333.7,268.1c-2.1-0.8-5.9-3-6.9-6.9c-1-3.5,0.4-5.9,1.9-6.3c1.5-0.4,3.1,0.6,2.5,2.5
		c-0.5,1.4-1.9,2.1-2.5,2.4c-0.9,0.5-0.1,1.7,1,1.5c2.5-0.5,3.9-3.2,3.8-5.1c-0.1-3-3.5-3.7-5.4-3.3c-2.9,0.6-5,3.4-3.8,8.4
		c1.2,4.7,5.3,7.3,7.5,8.2c-1.9,0.8-6,1.4-10,1.7c-3.9-0.3-8.1-0.9-10-1.7c2.2-1,6.3-3.6,7.5-8.2c1.2-5-0.9-7.8-3.8-8.4
		c-1.9-0.4-5.2,0.3-5.4,3.3c-0.1,1.9,1.4,4.6,3.8,5.1c1.1,0.2,1.9-1,1-1.5c-0.5-0.3-2-1-2.5-2.4c-0.6-1.8,1-2.8,2.5-2.5
		c1.6,0.4,2.9,2.8,1.9,6.3c-1.1,3.8-4.9,6-6.9,6.9c-1.8,0.7-2.1,2.5-0.9,3.2c3.7,2.1,9.2,2.6,12.6,2.7l0,0c0.1,0,0.2,0,0.3,0
		s0.2,0,0.3,0l0,0c3.4-0.1,8.8-0.5,12.6-2.7C335.7,270.6,335.5,268.8,333.7,268.1z"/>
        <path class="st0" d="M321.9,110.1c1-0.1,2.1-0.5,3.1-1.1l0,0c0.1-0.1,0.3-0.3,0.5-0.3c1.1-1,3.2-3.9,3.9-5.2c0.1-0.3,0.1-0.5,0-0.8
		c-0.3-0.6-1-1.3-1.2-1.4c-1-0.3-11.5-0.3-12.5,0l0,0c0,0-0.1,0-0.2,0.1c-0.5,0.3-1.4,1.3-1,2c0.6,1.2,2.9,4.3,4,5.3
		C319.4,109.5,320.7,109.9,321.9,110.1z"/>
        <path class="st0" d="M313.9,115.2c0.1-1,0.2-2.1-0.1-3.2l0,0c-0.1-0.2-0.1-0.3-0.2-0.5c-0.6-1.3-2.9-4.1-4-5.1
		c-0.2-0.2-0.5-0.3-0.8-0.3c-0.8,0.1-1.6,0.5-1.7,0.7c-0.6,0.8-3.9,10.4-3.9,11.4l0,0c0,0,0,0.1,0.1,0.2c0.2,0.5,0.8,1.7,1.7,1.6
		c1.4-0.1,5.2-1.4,6.5-2.1C312.5,117.3,313.3,116.2,313.9,115.2z"/>
        <path class="st0" d="M316.2,124.1c-0.9-0.4-2-0.8-3.2-0.8l0,0c-0.2,0-0.4,0-0.6,0.1c-1.5,0.2-5,1.5-6.3,2.2
		c-0.3,0.1-0.4,0.3-0.5,0.6c-0.2,0.7,0,1.6,0.1,1.7c0.6,0.8,9.1,6.8,10.1,7.1l0,0c0,0,0,0,0.2,0c0.6,0,1.9-0.3,2.1-1.1
		c0.3-1.3,0.3-5.2-0.1-6.7C318,126,317.1,124.9,316.2,124.1z"/>
        <path class="st0" d="M325.9,124.6c-0.7,0.7-1.5,1.6-1.8,2.7l0,0c-0.1,0.2-0.1,0.3-0.1,0.5c-0.3,1.4-0.1,5.1,0.1,6.5
		c0.1,0.3,0.3,0.5,0.5,0.7c0.6,0.4,1.6,0.5,1.8,0.4c1-0.3,9.5-6.2,10.1-7.1l0,0c0,0,0.1,0,0.1-0.1c0.2-0.5,0.3-1.9-0.4-2.3
		c-1.2-0.6-5-1.9-6.5-2.1C328.2,123.6,327,124.1,325.9,124.6z"/>
        <path class="st0" d="M329.3,116c0.5,0.8,1.1,1.8,2.1,2.5l0,0c0.1,0.1,0.3,0.2,0.5,0.3c1.3,0.7,5,1.7,6.5,1.9
		c0.3,0.1,0.5-0.1,0.8-0.3c0.6-0.5,1-1.3,1-1.5c0-1-3.2-10.6-3.8-11.5l0,0c0,0-0.1-0.1-0.1-0.1c-0.6-0.3-1.9-0.8-2.4-0.3
		c-1,0.9-3.4,4-4.1,5.3C329.1,113.5,329.2,114.8,329.3,116z"/>
        <path class="st0" d="M327.7,116.8c-0.3-0.5-0.7-0.9-1.2-1.2c0.1-0.4,0.1-0.7,0-1.1c-0.1-0.9-0.6-1.6-1.4-2.2
		c-1.2-0.8-3-0.7-4.1,0.1c-1.2-0.5-2.6-0.5-3.7,0.2c-0.7,0.5-1.2,1.3-1.4,2.2c-0.1,0.6,0,1.1,0.2,1.6c-0.3,0.3-0.5,0.5-0.7,0.8
		c-0.5,0.8-0.5,1.7-0.2,2.6c0.5,1.4,1.8,2.3,3.3,2.3c0.1,0,0.1,0,0.1,0c0.6,1.1,1.7,1.9,3.1,1.9c1.6,0,2.8-1,3.3-2.4
		c1.3-0.2,2.4-1,2.8-2.3C328.2,118.5,328.1,117.6,327.7,116.8z M318.8,120.5c-0.6,0.2-1.3-0.1-1.5-0.7c-0.2-0.6,0.1-1.2,0.7-1.4
		c0.6-0.2,1.3,0.1,1.5,0.7C319.7,119.7,319.4,120.3,318.8,120.5z M319.4,116.5c-0.5,0.4-1.3,0.3-1.6-0.3c-0.4-0.5-0.3-1.2,0.3-1.6
		c0.5-0.4,1.2-0.3,1.6,0.3C320.1,115.4,319.9,116.1,319.4,116.5z M322.1,122.1c-0.6,0-1.2-0.5-1.2-1.1c0-0.6,0.5-1.1,1.2-1.1
		c0.6,0,1.2,0.5,1.2,1.1C323.3,121.6,322.8,122.1,322.1,122.1z M322,115.6c-0.5-0.3-0.6-1-0.3-1.6s1.1-0.6,1.6-0.3
		c0.5,0.4,0.6,1.1,0.3,1.6C323.2,115.9,322.5,115.9,322,115.6z M324.4,119.1c-0.6-0.1-1-0.8-0.8-1.4c0.2-0.6,0.8-0.9,1.5-0.7
		c0.6,0.2,1,0.8,0.7,1.4C325.7,118.9,325,119.2,324.4,119.1z"/>
        <path class="st0" d="M259.5,104.7c-3.2-3-5-3.7-6-3.7c-0.5,0-1.2,0.2-2.3,1.4c-0.3,0.3-0.6,0.6-0.8,0.9c-1.6,1.7-3.4,4-6.8,4
		c-1.2,0-2.5-0.3-3.9-1v25.6c1.3,2.2,2.6,3.5,3.7,3.5c0.6,0,1.6-0.3,3.2-2.1c3.8-4,8.4-4.8,12.9-2.1L259.5,104.7L259.5,104.7z"/>
        <path class="st0" d="M279.9,107.3c-3.3,0-5.2-2.3-6.8-4c-0.3-0.3-0.6-0.6-0.8-0.9c-1.1-1.2-1.8-1.4-2.3-1.4c-1,0-2.8,0.6-6,3.7
		v26.5c1.8-1.1,3.6-1.6,5.4-1.6c2.7,0,5.2,1.2,7.6,3.7c1.6,1.7,2.7,2.1,3.2,2.1c1.1,0,2.4-1.3,3.7-3.5v-25.6
		C282.5,107,281.1,107.3,279.9,107.3"/>
        <path class="st0" d="M383.8,131.3c4.7-2.7,9.2-1.9,12.9,2.1c1.6,1.7,2.7,2.1,3.2,2.1c1.1,0,2.4-1.3,3.7-3.5v-25.6
		c-1.4,0.6-2.7,1-3.9,1c-3.4,0-5.2-2.3-6.8-4c-0.3-0.3-0.5-0.6-0.8-0.9c-1.1-1.2-1.7-1.4-2.3-1.4c-1,0-2.8,0.6-6,3.7L383.8,131.3
		L383.8,131.3z"/>
        <path class="st0" d="M363.4,107.3c-1.2,0-2.5-0.3-3.9-1v25.6c1.3,2.2,2.6,3.5,3.7,3.5c0.6,0,1.6-0.3,3.2-2.1
		c2.3-2.5,4.9-3.7,7.6-3.7c1.8,0,3.6,0.5,5.4,1.6v-26.5c-3.2-3-5-3.7-6-3.7c-0.5,0-1.2,0.2-2.3,1.4c-0.3,0.3-0.5,0.6-0.8,0.9
		C368.7,105.1,366.8,107.3,363.4,107.3"/>
        <path class="st0" d="M295.4,185.2c-8.2-2.8-25.1-11.2-32.2-31c-1.8-5.1-4.5-4.3-4,1.1c1.3,14.2,10.4,31.6,29.3,39.5
		C296.7,198.2,301.2,187.2,295.4,185.2z"/>
        <path class="st0" d="M348.2,185.2c8.2-2.8,25.1-11.2,32.2-31c1.8-5.1,4.5-4.3,4,1.1c-1.3,14.2-10.4,31.6-29.3,39.5
		C346.9,198.2,342.3,187.2,348.2,185.2z"/>
        <path class="st0" d="M343,181.2c1.1-0.3,2.7-0.6,4.6-1.2c5.1-1.9,14.1-6.5,21.1-15.7c-16-3.1-32.2-4.8-46.8-4.8
		c-14.7,0-31.1,1.7-47.1,4.9c7.3,9.5,16.8,14,21.7,15.9c1.6,0.5,2.9,0.8,3.9,1c2.3,0.5,4.6,0.8,7.4-1.6c2.8-2.4,3.4-3.8,13.9-3.8
		c10.5,0,11,1.4,13.9,3.8C338.4,182,340.7,181.6,343,181.2z"/>
        <path class="st0" d="M386.7,168.4c-3.2,8.9-9.1,18-18.4,24.9c7.4,2.3,16.6,2.4,23-1.8c-2.1,5.5-8.9,12.7-13.7,17.3
		c-0.9-0.6-1.7-1.4-2.4-2.1c-1.9-2.1-3.8-0.3-2.4,1.5c0.5,0.6,1.7,2.3,2.3,2.8c-1.4,1.4-2.5,2.3-2.8,2.5c-1-0.6-2-1.5-2.7-2.3
		c-1.9-2.1-3.8-0.3-2.4,1.5c0.5,0.6,1.7,2.4,2.4,2.9c-1.2,1-2.5,2-3.7,2.8c-2.5-3.1-5-6.3-9.1-4.3c-4.2,2.1,0,5,0,9.2
		c0,16.8-10.6,23-13.1,30.2c-2.7,7.1-5.1,19.8-7.2,23.3c-2.1,3.4-10.8,7.3-14.9,4.1c-4,3.2-12.9-0.6-14.9-4.1
		c-2-3.5-4.8-16.2-7.4-23.3c-2.6-7.1-12.9-13.3-12.9-30.2c0-4.2,4.1-7.1,0-9.2c-3.9-2-6.6,1.2-9.1,4.3c-1.2-0.8-2.5-1.8-3.7-2.8
		c0.7-0.5,1.9-2.3,2.4-2.9c1.4-1.7-0.5-3.6-2.4-1.5c-0.7,0.8-1.7,1.7-2.7,2.3c-0.3-0.3-1.4-1.2-2.8-2.5c0.7-0.6,1.9-2.3,2.3-2.8
		c1.4-1.7-0.5-3.6-2.4-1.5c-0.6,0.7-1.6,1.4-2.4,2.1c-4.9-4.7-11.6-11.8-13.7-17.3c6.6,4.3,15.1,4.1,22.6,1.6
		c-9-6.8-14.8-15.8-18-24.5c-14.2,3.9-27.6,9-38.5,15.1v35.7c0,57.7,82.5,124.5,103.7,130.4c21.2-6,103.2-72.7,103.2-130.4v-36.1
		C414.3,177.4,400.9,172.3,386.7,168.4z M391.7,275.3c-4.5,3.6-8,6.1-10.9,8.1c-6.2,4.3-8.6,6.3-8.4,9.5l1.1,13.9l-8.2-3.8
		c-6.4-2.8-9.4-6.7-10-12.9c-0.8-9.6,5.1-19.7,15.9-26.9c2.6-1.7,4.9-2.9,6.7-3.8c1.8-0.9,3.5-1.9,3.7-2.4c0.4-1.1-1.7-2.8-7.6-5.5
		c-0.6-0.3-1.7-0.7-2.7-1.2l-49.8,82.1l-49.8-82.1c-1,0.5-2.1,0.9-2.7,1.2c-6,2.7-8,4.4-7.6,5.5c0.1,0.5,1.9,1.5,3.7,2.4
		c1.9,0.9,4.1,2.1,6.7,3.8c10.9,7.3,16.8,17.3,15.9,26.9c-0.6,6.2-3.6,10.1-10,12.9l-8.2,3.8l1.1-13.9c0.3-3.2-2.1-5.2-8.4-9.5
		c-2.8-2-6.3-4.5-10.9-8.1c-27.8-22.4-28.7-50.6-20.6-62.6c2.7-3.9,10.4-12.6,10.4-12.6l-1.3-2c-2.8-0.3-5-2.6-5-5.5
		c0-3,2.5-5.6,5.5-5.6s5.5,2.5,5.5,5.6c0,0.6-0.1,1.2-0.3,1.7c0.1,0.1,0.1,0.1,0.1,0.2l75.6,126.6l75.6-126.6c0-0.1,0.1-0.1,0.1-0.2
		c-0.2-0.5-0.3-1.1-0.3-1.7c0-3,2.5-5.6,5.6-5.6c3,0,5.5,2.5,5.5,5.6c0,2.8-2.2,5.2-5,5.5l-1.3,2c0.1,0.1,7.7,8.6,10.4,12.6
		C420.5,224.6,419.6,252.9,391.7,275.3z"/>
        <path class="st1" d="M321.6,80.8c-76.4,0-103.4,23.4-103.4,23.4v68.7c10.4-5.3,22.8-9.7,36.1-13.2c-0.3-1.4-0.5-2.7-0.6-4
		c-0.3-3.7,0.3-6.5,2.1-8.4c1.2-1.4,2.9-2.1,4.7-2.1c1.9,0,5.6,0.9,7.8,7.1c0.5,1.4,1,2.7,1.6,3.9c17.7-3.6,35.6-5.4,51.7-5.4
		c16.1,0,34.3,1.9,51.9,5.4c0.6-1.2,1.1-2.5,1.6-3.9c2.2-6.1,5.8-7.1,7.8-7.1c1.8,0,3.5,0.8,4.7,2.1c1.7,1.9,2.4,4.7,2.1,8.4
		c-0.1,1.3-0.3,2.7-0.6,4c13.2,3.5,25.6,7.9,35.9,13.1v-68.7C425.1,104.2,397.9,80.8,321.6,80.8z M290.1,141.2l-10.4-1.6
		c-0.2,0-0.3-0.1-0.5-0.1l-13.7-2.1v2.3h-3.7h-3.7v-2.4l-24.7,5.2v-37.9l1.9-0.5v-6.1l3.6,2.6c2.5,1.9,4,2.3,4.8,2.3
		c1.2,0,2.1-0.9,3.4-2.5c0.3-0.3,0.6-0.7,0.9-1c1.7-1.8,3.5-2.7,5.6-2.7c2.4,0,5,1.4,8.2,4.1c3.2-2.8,5.8-4.1,8.2-4.1
		c2.1,0,3.8,0.9,5.6,2.7c0.3,0.3,0.6,0.7,0.9,1c1.4,1.6,2.2,2.5,3.4,2.5c0.8,0,2.3-0.4,4.8-2.3l3.6-2.6v6.1l1.9,0.5V141.2z
		 M345.3,125.1c-0.4,1.1-1.8,1.7-3.6,1.7c0,1-0.3,2-0.5,2.5c-1,1.4-12.6,9.4-14.2,9.9c-0.2,0.1-0.4,0.1-0.6,0.1
		c-0.5,0-1.1-0.1-1.7-0.3c-0.5,1.7-1.6,3-2.8,3c-1.2,0-2.3-1.2-2.8-2.9c-0.7,0.3-1.4,0.4-2.1,0.4c-0.3,0-0.5,0-0.7-0.1
		c-1.6-0.5-13.1-8.6-14.1-10c-0.3-0.4-0.5-1.2-0.6-2.1c-1.8,0-3.3-0.6-3.6-1.7c-0.4-1.1,0.5-2.4,1.9-3.4c-0.8-0.8-1.2-2-1.2-2.5
		c0-1.7,4.4-14.8,5.5-16.1c0.3-0.3,1.1-0.9,2.1-1.2c-0.5-1.6-0.4-3,0.6-3.8c0.9-0.6,2.4-0.4,3.8,0.6c0.6-1,1.6-1.7,2.1-1.9
		c1.1-0.3,5.8-0.4,7.9-0.4c3.1,0,8.7,0.1,9.7,0.5c0.5,0.2,1.3,0.8,1.9,1.7c1.5-1,3-1.4,3.9-0.6c0.9,0.6,1.1,2,0.6,3.6
		c1.1,0.3,2,0.9,2.3,1.3c1,1.3,5.4,14.4,5.4,16.1c0,0.5-0.4,1.4-1,2.3C344.8,122.7,345.7,124,345.3,125.1z M410,142.7l-24.7-5.2v2.3
		h-3.7h-3.7v-2.3l-13.7,2.1c-0.2,0-0.3,0.1-0.5,0.1l-10.4,1.6v-36.4l1.8-0.5v-6.1l3.6,2.6c2.5,1.9,4,2.3,4.8,2.3
		c1.2,0,2.1-0.9,3.4-2.5c0.3-0.3,0.6-0.7,0.9-1c1.7-1.8,3.6-2.7,5.6-2.7c2.4,0,5,1.4,8.2,4.1c3.2-2.8,5.8-4.1,8.2-4.1
		c2.1,0,3.8,0.9,5.6,2.7c0.3,0.3,0.6,0.7,0.9,1c1.3,1.6,2.3,2.5,3.4,2.5c0.8,0,2.3-0.4,4.8-2.3l3.6-2.6v6.1l1.9,0.5L410,142.7
		L410,142.7z"/>
        <path class="st1" d="M380.8,248.6c3.4,1.9,6.9,4.6,6.9,8.4c0,3.9-3.3,5.6-6.9,7.4c-1.8,0.9-3.8,1.9-6.1,3.5
		c-3.4,2.3-14.4,10.5-13.4,21.7c0.4,3.9,1.8,6,5.7,7.9l-0.5-5c-0.3-5,4.3-9.2,10.7-13.7c2.8-1.9,6.2-4.4,10.6-7.9
		c24-19.3,26.7-44.3,19.4-55.1c-1-1.4-2.4-3.4-3.8-5.4C401.4,232.2,390.2,243.1,380.8,248.6z"/>
        <path class="st1" d="M239.9,210.3c-1.4,2-2.8,4-3.8,5.4c-7.3,10.7-4.5,35.8,19.4,55.1c4.4,3.5,7.8,5.9,10.6,7.9
		c6.5,4.5,10.9,8.7,10.7,13.7l-0.5,5c3.9-1.9,5.4-3.9,5.7-7.9c1-11.2-10-19.4-13.4-21.7c-2.3-1.6-4.3-2.6-6.1-3.5
		c-3.6-1.8-6.9-3.5-6.9-7.4c0-3.8,3.6-6.5,6.9-8.4C253.1,243.1,242,232.2,239.9,210.3z"/>
</g>
</svg>
