<svg xmlns="http://www.w3.org/2000/svg" xmlns:xlink="http://www.w3.org/1999/xlink" viewBox="-7 -7 57 47">
    <defs>
        <style>.cls-1{fill:#fff;}.cls-2{fill:url(#linear-gradient);}</style>
        <linearGradient id="linear-gradient" x1="59.32" y1="-7.88" x2="-39.68" y2="53.19"
                        gradientUnits="userSpaceOnUse">
            <stop offset="0.32" stop-color="#f7e687"/>
            <stop offset="0.72" stop-color="#d3aa56"/>
        </linearGradient>
    </defs>
    <g id="Layer_2" data-name="Layer 2">
        <g id="Layer_1-2" data-name="Layer 1">
            <path class="cls-2"
                  d="M37.58,4.8l3.26,3A62.53,62.53,0,0,0,28.23,13L23.45,0h-6L0,43.51H5.12c1-1.93,2-3.81,3.08-5.63A69.53,69.53,0,0,1,30.79,14.74l.05,0L32,14l.75-.45.37-.22A69.35,69.35,0,0,1,41.65,9a70.05,70.05,0,0,1,7.57-2.69Zm-25,19.81L20.4,5.73l3.73,9.74A68.37,68.37,0,0,0,12.56,24.61Z"/>
        </g>
    </g>
</svg>